# xmcd
#
# Track frame offsets: 
#        150
#        16947
#        29140
#        41860
#        52837
#        64180
#        74640
#        97662
#        109117
#        130202
#        141732
#        156840
#        168770
#        181660
#
# Disc length: 2619 seconds
#
# Revision: 17
# Processed by: cddbd v1.5.2PL0 Copyright (c) Steve Scherf et al.
# Submitted via: ExactAudioCopyFreeDBPlugin 1.0
#
DISCID=c20a390e
DTITLE=Johnny Cash - Unchained
DYEAR=1996
DGENRE=Country
TTITLE0=Rowboat
TTITLE1=Sea Of Heartbreak
TTITLE2=Rusty Cage
TTITLE3=The One Rose (That's Left In My Heart)
TTITLE4=Country Boy
TTITLE5=Memories Are Made Of This
TTITLE6=Spiritual
TTITLE7=The Kneeling Drunkard's Plea
TTITLE8=Southern Accents
TTITLE9=Mean Eyed Cat
TTITLE10=Meet Me In Heaven
TTITLE11=I Never Picked Cotton
TTITLE12=Unchained
TTITLE13=I've Been Everywhere
EXTD=YEAR: 1996
EXTT0=
EXTT1=
EXTT2=
EXTT3=
EXTT4=
EXTT5=
EXTT6=
EXTT7=
EXTT8=
EXTT9=
EXTT10=
EXTT11=
EXTT12=
EXTT13=
PLAYORDER=
